<svg xmlns="http://www.w3.org/2000/svg" width="144" height="144" viewBox="0 0 144 144"><defs><style>.a{fill:#2322f0;}.b{fill:#fff;}</style></defs><rect class="a" width="144" height="144"/><path class="b" d="M79.74,121.74H63.34a3.73,3.73,0,0,1-3.73-3.52L59,106.78a35.07,35.07,0,0,1-3.32-1.45l-8.18,7.44a3.76,3.76,0,0,1-5.17-.13L30.71,101a3.74,3.74,0,0,1-.14-5.12l7.6-8.55c-.48-1.07-.92-2.17-1.31-3.32l-11-.56a3.74,3.74,0,0,1-3.55-3.73V63.34a3.73,3.73,0,0,1,3.52-3.73L37.23,59c.42-1.1.89-2.18,1.42-3.24l-7.43-8.22a3.73,3.73,0,0,1,.13-5.15L43,30.72a3.75,3.75,0,0,1,5.14-.15l8.57,7.64c1.06-.47,2.15-.91,3.29-1.29l.55-11.11a3.74,3.74,0,0,1,3.74-3.55h16.4a3.75,3.75,0,0,1,3.74,3.52l.65,11.51a34.29,34.29,0,0,1,3.23,1.41l8.21-7.47a3.76,3.76,0,0,1,5.17.12L113.28,43a3.75,3.75,0,0,1,.15,5.14l-7.65,8.59q.72,1.61,1.29,3.27l11.12.56a3.74,3.74,0,0,1,3.55,3.73v16.4a3.75,3.75,0,0,1-3.52,3.74l-11.51.65a34.29,34.29,0,0,1-1.41,3.23l7.47,8.22a3.74,3.74,0,0,1-.12,5.16L101,113.28a3.74,3.74,0,0,1-5.13.15l-8.56-7.61A35,35,0,0,1,84,107.13l-.56,11.06A3.74,3.74,0,0,1,79.74,121.74Zm-12.87-7.48h9.31l.51-10.14a3.76,3.76,0,0,1,2.79-3.43,29.84,29.84,0,0,0,6.66-2.61,3.87,3.87,0,0,1,4.31.5l7.78,6.91,6.61-6.6L98,91.35a3.74,3.74,0,0,1-.44-4.44,27.15,27.15,0,0,0,2.83-6.49,3.76,3.76,0,0,1,3.39-2.69l10.51-.61v-9.3l-10.2-.51a3.76,3.76,0,0,1-3.43-2.79A29.84,29.84,0,0,0,98,57.86a3.74,3.74,0,0,1,.5-4.26l7-7.83-6.6-6.61L91.35,46a3.74,3.74,0,0,1-4.44.45,26.81,26.81,0,0,0-6.49-2.83,3.76,3.76,0,0,1-2.69-3.39l-.61-10.51H67.81l-.5,10.19a3.77,3.77,0,0,1-2.79,3.44A28.79,28.79,0,0,0,57.89,46a3.75,3.75,0,0,1-4.29-.48l-7.83-7-6.62,6.6L46,52.67a3.74,3.74,0,0,1,.43,4.43,27.51,27.51,0,0,0-2.84,6.47,3.73,3.73,0,0,1-3.38,2.69l-10.45.61v9.31l10.14.51a3.76,3.76,0,0,1,3.43,2.79A28.7,28.7,0,0,0,45.9,86.1a3.81,3.81,0,0,1,.47,1.81,3.88,3.88,0,0,1-.95,2.54L38.5,98.23l6.56,6.6L52.59,98a3.77,3.77,0,0,1,4.5-.41,25.49,25.49,0,0,0,6.46,2.86,3.72,3.72,0,0,1,2.71,3.38ZM118,80.66h0ZM72,90A18,18,0,1,1,89.94,72,17.95,17.95,0,0,1,72,90Zm0-28.41A10.46,10.46,0,1,0,82.46,72,10.47,10.47,0,0,0,72,61.54Z"/></svg>