<svg xmlns="http://www.w3.org/2000/svg" width="144" height="144" viewBox="0 0 144 144"><defs><style>.a{fill:#2322f0;}.b{fill:#fff;}.c{fill:#c7c7e0;}</style></defs><rect class="a" width="144" height="144"/><path class="b" d="M63.6,120H29.34a4.09,4.09,0,0,1-4.09-4.09V81.6a4.09,4.09,0,0,1,4.09-4.09H63.6a4.09,4.09,0,0,1,4.08,4.09v34.26A4.09,4.09,0,0,1,63.6,120Zm-30.18-8.18H59.51V85.68H33.42Z"/><path class="b" d="M117,120H82.71a4.09,4.09,0,0,1-4.08-4.09V81.6a4.09,4.09,0,0,1,4.08-4.09H117a4.08,4.08,0,0,1,4.08,4.09v34.26A4.08,4.08,0,0,1,117,120ZM86.8,111.77h26.09V85.68H86.8Z"/><path class="b" d="M117,67.17H82.71a4.09,4.09,0,0,1-4.08-4.09V28.82a4.09,4.09,0,0,1,4.08-4.09H117a4.08,4.08,0,0,1,4.08,4.09V63.08A4.08,4.08,0,0,1,117,67.17ZM86.8,59h26.09V32.91H86.8Z"/><rect class="c" x="36.32" y="37.44" width="17" height="17" transform="translate(-19.36 45.15) rotate(-45)"/><path class="b" d="M65.54,43.08l-17.8-17.8a4,4,0,0,0-5.78,0l-17.8,17.8a4,4,0,0,0,0,5.78L42,66.66a3.83,3.83,0,0,0,2.86,1.17,4.05,4.05,0,0,0,2.92-1.17l17.8-17.8A4.12,4.12,0,0,0,65.54,43.08ZM44.82,58l-12-12,12-12,12,12Z"/></svg>