<svg xmlns="http://www.w3.org/2000/svg" width="144" height="144" viewBox="0 0 144 144"><defs><style>.a{fill:#66f;}.b{fill:#d0d0f7;}.c{fill:#fff;}</style></defs><rect class="a" width="144" height="144"/><rect class="b" x="30.33" y="29.23" width="31.95" height="85.54"/><path class="c" d="M117.51,21.54h-91a3.86,3.86,0,0,0-3.85,3.85v93.22a3.86,3.86,0,0,0,3.85,3.85h91a3.86,3.86,0,0,0,3.85-3.85V25.39A3.86,3.86,0,0,0,117.51,21.54ZM30.33,29.23h32v85.54H30.33Zm83.34,85.54H70V91.38h43.7Zm0-31.08H70V60.31h43.7Zm0-31.07H70V29.23h43.7Z"/></svg>